<?xml version="1.0" standalone="no"?>
<!DOCTYPE svg PUBLIC "-//W3C//DTD SVG 20010904//EN"
 "http://www.w3.org/TR/2001/REC-SVG-20010904/DTD/svg10.dtd">
<svg version="1.0" xmlns="http://www.w3.org/2000/svg"
 width="512.000000pt" height="512.000000pt" viewBox="0 0 512.000000 512.000000"
 preserveAspectRatio="xMidYMid meet">

<g transform="translate(0.000000,512.000000) scale(0.100000,-0.100000)"
fill="#000000" stroke="none">
<path d="M1880 5092 c-19 -10 -188 -116 -375 -237 -187 -120 -455 -290 -595
-378 -140 -88 -271 -173 -290 -190 -97 -85 -175 -219 -207 -356 -17 -71 -18
-160 -18 -1371 l0 -1295 23 -60 c95 -254 404 -405 828 -405 212 0 388 39 459
101 68 60 65 11 65 1144 0 652 4 1051 11 1105 28 228 89 371 212 495 70 70
157 132 577 413 272 182 505 340 518 351 40 35 65 107 58 168 -14 116 -84 183
-192 183 -25 0 -59 -6 -77 -14 -18 -7 -232 -146 -477 -308 -444 -294 -901
-591 -1015 -660 -169 -102 -325 -158 -441 -158 -58 0 -76 4 -99 22 -76 60 -73
225 5 320 17 21 107 83 217 151 104 64 307 192 453 286 l264 170 19 -32 c82
-135 263 -125 340 18 20 37 22 55 22 225 0 172 -2 188 -22 227 -37 68 -84 97
-162 100 -49 3 -75 -1 -101 -15z"/>
<path d="M3471 4404 c-81 -36 -1197 -814 -1283 -893 -114 -105 -174 -209 -203
-346 -22 -110 -23 -2591 0 -2678 22 -84 57 -148 121 -216 170 -184 482 -287
787 -260 167 15 276 53 420 148 206 137 1324 985 1371 1041 14 17 29 47 33 68
11 49 10 2606 0 2655 -18 86 -122 156 -211 143 -58 -9 -75 -21 -468 -324 -689
-531 -953 -721 -1102 -792 -192 -91 -383 -118 -483 -69 -64 32 -85 70 -86 157
-1 83 26 138 100 200 55 46 884 622 896 622 4 0 12 -11 19 -25 16 -36 81 -77
132 -82 68 -8 113 4 156 43 65 59 72 94 68 307 l-3 185 -30 43 c-52 74 -159
107 -234 73z m855 -1800 c-2 -6 -215 -175 -473 -374 -257 -200 -476 -370 -485
-378 -17 -14 -18 -5 -18 184 l0 199 488 378 487 379 3 -188 c1 -104 0 -194 -2
-200z"/>
</g>
</svg>
