<?xml version="1.0" standalone="no"?>
<!DOCTYPE svg PUBLIC "-//W3C//DTD SVG 20010904//EN"
 "http://www.w3.org/TR/2001/REC-SVG-20010904/DTD/svg10.dtd">
<svg version="1.0" xmlns="http://www.w3.org/2000/svg"
 width="512.000000pt" height="512.000000pt" viewBox="0 0 512.000000 512.000000"
 preserveAspectRatio="xMidYMid meet">

<g transform="translate(0.000000,512.000000) scale(0.100000,-0.100000)"
fill="#000000" stroke="none">
<path d="M2920 4794 c-210 -39 -266 -56 -400 -126 -192 -99 -369 -276 -468
-468 -82 -157 -118 -290 -131 -480 -6 -102 -7 -104 -14 -50 -12 84 -45 186
-88 274 -235 476 -807 670 -1282 435 -418 -206 -630 -686 -497 -1126 46 -151
132 -295 238 -400 46 -45 53 -56 40 -64 -115 -64 -230 -201 -277 -330 -39
-106 -41 -154 -41 -868 0 -782 0 -774 72 -920 82 -166 251 -297 434 -336 104
-22 2724 -22 2828 0 183 39 352 170 434 336 41 83 71 191 72 257 l0 32 481
-321 c476 -317 482 -321 523 -315 104 16 199 87 245 185 l26 56 0 1035 0 1035
-26 56 c-46 98 -141 169 -245 185 -41 6 -47 2 -521 -314 l-480 -320 -7 63
c-13 132 -81 276 -172 368 -26 26 -43 51 -38 56 5 4 41 31 80 59 179 130 332
342 397 547 116 369 44 752 -196 1050 -160 197 -389 336 -642 390 -77 17 -294
28 -345 19z m340 -344 c265 -76 475 -288 552 -556 33 -114 33 -314 0 -428 -78
-272 -286 -480 -558 -558 -114 -33 -314 -33 -428 0 -271 78 -480 287 -558 558
-33 114 -33 314 0 428 88 304 327 517 652 580 61 12 266 -3 340 -24z m-2166
-305 c183 -39 352 -170 434 -336 127 -256 81 -540 -118 -739 -251 -252 -649
-252 -900 0 -199 199 -245 483 -118 739 126 256 420 396 702 336z m852 -690
c37 -189 122 -360 255 -512 l51 -58 -283 -3 c-155 -1 -284 0 -286 2 -3 2 14
28 36 56 120 151 199 375 202 572 1 40 4 62 6 48 2 -14 11 -61 19 -105z"/>
</g>
</svg>
