<?xml version="1.0" standalone="no"?>
<!DOCTYPE svg PUBLIC "-//W3C//DTD SVG 20010904//EN"
 "http://www.w3.org/TR/2001/REC-SVG-20010904/DTD/svg10.dtd">
<svg version="1.0" xmlns="http://www.w3.org/2000/svg"
 width="1079.000000pt" height="1079.000000pt" viewBox="0 0 1079.000000 1079.000000"
 preserveAspectRatio="xMidYMid meet">

<g transform="translate(0.000000,1079.000000) scale(0.100000,-0.100000)"
fill="#000000" stroke="none">
<path d="M0 5395 l0 -5395 5395 0 5395 0 0 5395 0 5395 -5395 0 -5395 0 0
-5395z m5928 4696 c213 -25 313 -42 512 -87 735 -165 1407 -499 2005 -995 129
-107 468 -446 574 -574 612 -740 967 -1564 1082 -2516 31 -248 33 -790 6
-1024 -105 -883 -400 -1642 -905 -2325 -1143 -1545 -3104 -2246 -4967 -1775
-701 177 -1317 492 -1885 964 -154 128 -461 436 -590 592 -611 740 -959 1561
-1076 2544 -23 188 -26 733 -6 925 105 999 457 1843 1086 2605 125 151 435
462 586 587 781 646 1690 1017 2690 1097 193 16 689 6 888 -18z"/>
<path d="M2946 8738 c28 -29 212 -222 409 -428 197 -206 365 -381 373 -387 35
-29 -3 -24 -75 10 -233 108 -493 100 -734 -23 -151 -76 -284 -215 -355 -370
-9 -19 -20 -43 -25 -52 -18 -36 -49 -170 -49 -212 0 -25 -4 -47 -9 -50 -5 -3
-7 -23 -4 -43 3 -21 8 -67 13 -103 23 -185 93 -330 224 -469 115 -120 249
-192 445 -239 51 -12 272 -13 310 -1 14 4 51 15 82 24 31 9 91 33 133 55 43
21 76 33 74 27 -2 -7 -201 -208 -443 -447 -242 -239 -441 -440 -443 -447 -3
-10 63 -13 321 -13 l324 0 309 301 c502 489 925 899 1003 972 71 68 101 79
101 39 0 -18 38 -172 58 -237 49 -155 165 -358 303 -530 81 -100 291 -295 319
-295 4 0 137 129 296 288 159 158 466 463 682 677 216 215 391 395 390 401 -2
9 -792 830 -1259 1308 l-57 59 -45 -26 c-99 -58 -248 -193 -346 -312 -135
-165 -249 -374 -298 -550 -37 -131 -43 -159 -47 -197 -2 -21 -7 -43 -12 -48
-6 -6 -286 267 -699 680 l-690 690 -315 0 -314 0 50 -52z m2961 -738 c108 -14
222 -51 308 -102 122 -72 274 -243 327 -366 10 -26 23 -56 28 -67 15 -35 38
-148 45 -220 11 -121 -20 -303 -71 -414 -105 -231 -298 -392 -554 -462 -71
-20 -282 -17 -369 4 -228 55 -457 239 -558 447 -27 56 -63 156 -63 175 0 8 35
48 78 89 l77 75 -82 83 c-92 93 -90 83 -48 203 44 127 105 222 207 322 125
122 275 199 448 228 97 17 128 17 227 5z m-1613 -669 c86 -90 155 -168 154
-172 -3 -8 -303 -314 -391 -398 -26 -25 -50 -42 -53 -38 -4 4 0 15 8 24 37 42
86 168 114 292 12 55 15 102 11 175 -6 110 -21 179 -67 293 -17 41 -30 77 -30
81 0 8 44 -37 254 -257z"/>
<path d="M6360 8779 c-172 -12 -261 -27 -267 -46 -2 -6 329 -354 737 -772 408
-419 739 -765 736 -769 -2 -4 -146 -152 -318 -327 -172 -176 -354 -362 -403
-414 -50 -52 -243 -249 -430 -438 -187 -189 -340 -351 -340 -361 0 -19 41 -30
225 -58 124 -19 342 -14 485 11 272 48 560 182 770 358 170 143 323 339 411
527 78 168 79 169 116 310 50 193 59 441 23 678 -30 200 -129 447 -260 647
-113 172 -354 388 -536 480 -123 63 -321 132 -429 151 -68 11 -66 11 -210 23
-145 12 -152 12 -310 0z"/>
<path d="M1985 5396 c-328 -69 -565 -386 -542 -726 20 -303 230 -561 516 -635
84 -22 248 -21 332 0 249 64 432 257 500 525 55 216 -13 463 -174 636 -160
172 -400 248 -632 200z m240 -331 c70 -18 152 -70 189 -117 14 -19 37 -61 53
-93 36 -80 38 -191 4 -277 -29 -76 -103 -156 -178 -193 -53 -27 -67 -30 -158
-30 -87 0 -107 3 -156 26 -125 59 -201 171 -208 307 -5 114 25 200 97 275 97
101 223 136 357 102z"/>
<path d="M8524 5399 c-27 -4 -82 -21 -120 -37 -196 -79 -340 -240 -405 -452
-20 -62 -24 -96 -23 -200 0 -113 3 -134 32 -220 71 -211 224 -367 432 -441 88
-31 274 -38 374 -15 235 55 419 235 497 486 35 111 33 282 -4 400 -63 201
-209 362 -403 444 -103 43 -252 57 -380 35z m228 -334 c144 -37 241 -144 269
-296 28 -152 -55 -312 -199 -385 -52 -26 -66 -29 -162 -29 -96 0 -110 3 -158
28 -75 39 -124 87 -163 159 -33 60 -34 68 -34 168 0 123 16 169 86 245 98 106
226 145 361 110z"/>
<path d="M4140 4935 c0 -378 -2 -450 -15 -475 -18 -35 -82 -74 -147 -91 l-48
-11 0 -160 0 -160 58 7 c214 25 396 135 472 285 48 94 50 117 50 598 l0 452
-185 0 -185 0 0 -445z"/>
<path d="M5414 5367 c-2 -7 -3 -80 -2 -162 l3 -150 130 -2 130 -1 3 -501 2
-501 168 2 167 3 3 498 2 497 113 1 c61 1 121 2 132 3 19 1 20 8 20 161 l0
160 -433 3 c-348 2 -434 0 -438 -11z"/>
<path d="M6350 4715 l0 -665 175 0 175 0 0 665 0 665 -175 0 -175 0 0 -665z"/>
<path d="M6774 5369 c-5 -9 5 -35 154 -399 280 -682 360 -877 366 -897 7 -22
11 -23 141 -23 l134 0 15 28 c7 15 113 275 234 577 121 303 234 584 251 625
17 41 31 81 31 88 0 20 -350 13 -361 -8 -12 -21 -32 -67 -172 -393 -68 -159
-128 -288 -132 -288 -5 0 -73 151 -152 337 -79 185 -148 343 -155 351 -8 11
-48 13 -180 12 -92 -1 -171 -5 -174 -10z"/>
<path d="M2930 4716 l0 -656 309 0 c273 0 316 2 369 18 262 82 350 393 159
569 -25 23 -63 51 -85 62 -23 11 -43 25 -46 30 -3 5 16 26 42 47 26 22 55 48
65 59 66 73 79 205 30 302 -40 80 -109 148 -190 186 l-68 32 -292 3 -293 3 0
-655z m477 365 c31 -1 80 -47 88 -81 8 -38 -17 -85 -58 -110 -23 -15 -50 -20
-99 -20 l-68 0 0 103 c0 57 2 106 4 108 4 3 40 3 133 0z m55 -521 c44 -13 88
-61 88 -99 0 -69 -73 -110 -197 -111 l-83 0 0 110 0 110 78 0 c42 0 94 -5 114
-10z"/>
<path d="M4600 4710 l0 -660 368 2 367 3 3 158 3 157 -191 0 -190 0 0 105 0
105 173 2 172 3 0 145 0 145 -172 3 -173 2 0 90 0 90 190 0 190 0 0 155 0 155
-370 0 -370 0 0 -660z"/>
<path d="M6174 3896 l-28 -23 18 -482 c9 -265 19 -488 22 -495 7 -17 48 -36
80 -36 14 0 36 12 51 26 22 22 25 31 19 72 -8 65 -29 564 -25 587 3 11 52 -62
133 -200 72 -120 141 -228 155 -241 33 -31 72 -30 108 0 15 13 87 126 158 250
72 124 133 225 136 226 3 0 11 -154 18 -342 14 -392 13 -388 86 -388 32 0 51
6 66 21 19 19 21 29 15 88 -3 36 -13 252 -21 480 -17 456 -14 439 -82 462 -27
9 -38 8 -56 -4 -12 -8 -75 -105 -139 -216 -65 -110 -144 -244 -177 -296 l-58
-96 -50 78 c-27 43 -105 174 -174 292 -68 117 -134 224 -146 237 -29 31 -73
31 -109 0z"/>
<path d="M1853 3884 c-23 -23 -25 -31 -20 -82 4 -32 11 -244 17 -472 10 -370
13 -418 29 -440 22 -31 72 -38 107 -15 l25 16 -7 159 -7 159 63 -20 c74 -23
155 -24 233 -4 132 34 218 102 270 213 28 60 31 77 31 158 1 82 -3 97 -32 156
-37 76 -83 120 -162 157 -49 23 -67 26 -170 26 -101 0 -122 -3 -177 -26 -35
-15 -63 -22 -63 -17 0 5 -11 20 -25 33 -33 33 -78 33 -112 -1z m458 -145 c88
-30 139 -101 139 -195 0 -70 -21 -114 -73 -160 -96 -81 -272 -84 -356 -5 l-31
29 0 130 0 130 36 22 c89 56 205 75 285 49z"/>
<path d="M3062 3903 c-22 -9 -20 -4 -304 -733 -44 -113 -80 -216 -80 -229 -1
-52 82 -90 126 -58 10 7 39 69 64 137 l47 125 178 26 c167 24 179 25 187 8 5
-9 30 -70 54 -135 24 -66 47 -127 51 -136 4 -9 20 -21 37 -27 25 -9 38 -8 67
6 52 26 52 57 -3 194 -24 63 -92 236 -151 384 -59 149 -118 299 -132 335 -36
93 -82 127 -141 103z m106 -420 c27 -73 47 -135 44 -137 -13 -7 -223 -38 -228
-33 -3 3 6 31 19 63 13 33 41 103 62 157 21 54 41 95 45 90 4 -4 30 -68 58
-140z"/>
<path d="M4779 3900 c-19 -11 -26 -27 -133 -300 -46 -118 -120 -307 -164 -420
-90 -230 -89 -225 -79 -261 11 -42 83 -64 120 -36 9 6 38 68 65 137 l47 125
178 26 c207 30 178 42 232 -104 60 -168 64 -175 97 -186 25 -9 38 -8 67 6 55
27 52 53 -24 248 -241 616 -288 731 -312 753 -25 23 -66 28 -94 12z m107 -415
c28 -74 49 -137 45 -139 -12 -7 -222 -38 -227 -33 -3 3 6 31 19 63 13 33 41
103 62 157 20 54 40 96 43 93 3 -4 29 -67 58 -141z"/>
<path d="M7321 3893 l-24 -16 6 -286 c15 -648 18 -702 40 -724 15 -15 27 -18
60 -13 23 4 87 8 142 10 221 7 395 92 467 227 18 35 23 60 23 124 0 94 -20
140 -84 198 -35 32 -118 67 -158 67 -19 0 -16 14 8 36 12 10 32 41 46 69 21
41 25 59 20 106 -7 79 -43 131 -116 166 -53 26 -64 28 -191 29 -85 0 -143 4
-157 12 -30 16 -54 15 -82 -5z m347 -173 c38 -17 42 -22 42 -55 0 -31 -9 -45
-57 -94 -50 -48 -186 -131 -198 -119 -2 1 -5 63 -6 137 -5 156 -9 149 106 150
49 0 83 -5 113 -19z m160 -410 c81 -36 90 -127 20 -199 -61 -63 -200 -111
-320 -111 -62 0 -68 14 -68 160 l0 128 44 17 c99 38 243 40 324 5z"/>
<path d="M8188 3895 c-22 -12 -27 -24 -32 -67 -21 -205 -13 -466 19 -618 18
-88 69 -201 113 -251 17 -19 55 -48 84 -65 50 -27 59 -29 168 -29 105 0 120 2
171 28 105 51 173 150 206 299 31 141 14 624 -24 686 -10 16 -23 22 -47 22
-48 0 -65 -8 -81 -39 -12 -23 -11 -42 1 -127 31 -219 29 -421 -6 -546 -18 -62
-71 -131 -120 -156 -66 -34 -154 -28 -207 14 -48 38 -98 135 -120 234 -18 82
-25 422 -10 532 6 51 5 60 -13 78 -23 23 -64 25 -102 5z"/>
<path d="M3862 3870 c-154 -73 -256 -255 -277 -496 -25 -287 114 -485 354
-501 90 -6 136 5 211 49 68 41 170 160 170 198 0 43 -35 80 -75 80 -29 0 -40
-8 -80 -59 -81 -103 -145 -134 -242 -118 -60 10 -130 64 -157 122 -75 158 -6
467 126 569 86 65 174 57 257 -24 60 -58 97 -65 136 -25 43 42 27 96 -46 159
-62 53 -133 76 -232 76 -70 0 -91 -4 -145 -30z"/>
<path d="M5550 3890 c-143 -7 -181 -17 -198 -56 -8 -15 -9 -165 -5 -476 5
-386 8 -456 21 -470 13 -16 35 -18 186 -17 94 0 236 4 314 8 163 7 172 12 172
87 0 68 2 68 -285 59 l-256 -7 3 148 3 149 55 2 c30 2 116 7 190 13 148 11
164 18 176 77 5 26 1 37 -21 58 -24 25 -31 27 -88 21 -34 -3 -119 -8 -189 -12
l-128 -6 0 136 0 136 73 1 c190 2 386 16 401 28 21 18 31 77 17 107 -11 24
-11 24 -158 22 -82 -1 -209 -4 -283 -8z"/>
</g>
</svg>
