<?xml version="1.0" standalone="no"?>
<!DOCTYPE svg PUBLIC "-//W3C//DTD SVG 20010904//EN"
 "http://www.w3.org/TR/2001/REC-SVG-20010904/DTD/svg10.dtd">
<svg version="1.0" xmlns="http://www.w3.org/2000/svg"
 width="720.000000pt" height="722.000000pt" viewBox="0 0 720.000000 722.000000"
 preserveAspectRatio="xMidYMid meet">

<g transform="translate(0.000000,722.000000) scale(0.100000,-0.100000)"
fill="#000000" stroke="none">
<path d="M3670 4595 c0 -33 -2 -35 -35 -35 l-35 0 0 -75 0 -75 35 0 c33 0 35
-2 35 -35 0 -33 2 -35 35 -35 33 0 35 -2 35 -35 0 -33 2 -35 34 -35 33 0 35
-2 38 -37 3 -36 5 -38 41 -41 35 -3 37 -5 37 -38 0 -32 2 -34 35 -34 33 0 35
-2 35 -35 0 -33 2 -35 35 -35 33 0 35 -2 35 -35 0 -33 2 -35 35 -35 33 0 35
-2 35 -35 0 -33 2 -35 34 -35 33 0 35 -2 38 -37 3 -36 5 -38 41 -41 33 -3 37
-6 37 -31 0 -27 -3 -29 -52 -35 -29 -3 -419 -6 -865 -6 l-813 0 0 -35 c0 -33
-2 -35 -35 -35 l-35 0 0 -70 0 -70 35 0 c33 0 35 -2 35 -35 l0 -35 813 0 c446
0 836 -3 865 -6 49 -6 52 -8 52 -35 0 -25 -4 -28 -37 -31 -36 -3 -38 -5 -41
-40 -3 -36 -5 -38 -38 -38 -32 0 -34 -2 -34 -35 0 -33 -2 -35 -35 -35 -33 0
-35 -2 -35 -35 0 -33 -2 -35 -35 -35 -33 0 -35 -2 -35 -35 0 -33 -2 -35 -35
-35 -33 0 -35 -2 -35 -34 0 -33 -2 -35 -37 -38 -36 -3 -38 -5 -41 -40 -3 -36
-5 -38 -38 -38 -32 0 -34 -2 -34 -35 0 -33 -2 -35 -35 -35 -33 0 -35 -2 -35
-35 0 -33 -2 -35 -35 -35 l-35 0 0 -75 0 -75 35 0 c33 0 35 -2 35 -35 l0 -35
75 0 75 0 0 35 c0 33 2 35 35 35 33 0 35 2 35 35 0 33 2 35 35 35 34 0 35 1
35 40 0 39 1 40 35 40 33 0 35 2 35 35 0 34 1 35 40 35 39 0 40 1 40 35 0 33
2 35 35 35 33 0 35 2 35 35 0 33 2 35 35 35 33 0 35 2 35 35 0 33 2 35 35 35
34 0 35 1 35 40 0 39 1 40 35 40 33 0 35 2 35 35 0 34 1 35 40 35 39 0 40 1
40 35 0 33 2 35 35 35 33 0 35 2 35 35 0 33 2 35 35 35 33 0 35 2 35 35 0 33
2 35 35 35 34 0 35 1 35 40 0 39 1 40 35 40 l35 0 0 70 0 70 -35 0 c-34 0 -35
1 -35 40 0 39 -1 40 -35 40 -33 0 -35 2 -35 35 0 33 -2 35 -35 35 -33 0 -35 2
-35 35 0 33 -2 35 -35 35 -33 0 -35 2 -35 35 0 34 -1 35 -40 35 -39 0 -40 1
-40 35 0 33 -2 35 -35 35 -34 0 -35 1 -35 40 0 39 -1 40 -35 40 -33 0 -35 2
-35 35 0 33 -2 35 -35 35 -33 0 -35 2 -35 35 0 33 -2 35 -35 35 -33 0 -35 2
-35 35 0 34 -1 35 -40 35 -39 0 -40 1 -40 35 0 33 -2 35 -35 35 -34 0 -35 1
-35 40 0 39 -1 40 -35 40 -33 0 -35 2 -35 35 0 33 -2 35 -35 35 -33 0 -35 2
-35 35 l0 35 -75 0 -75 0 0 -35z"/>
<path d="M0 10 c0 -7 1207 -10 3600 -10 2393 0 3600 3 3600 10 0 7 -1207 10
-3600 10 -2393 0 -3600 -3 -3600 -10z"/>
</g>
</svg>
