<?xml version="1.0" standalone="no"?>
<!DOCTYPE svg PUBLIC "-//W3C//DTD SVG 20010904//EN"
 "http://www.w3.org/TR/2001/REC-SVG-20010904/DTD/svg10.dtd">
<svg version="1.0" xmlns="http://www.w3.org/2000/svg"
 width="719.000000pt" height="740.000000pt" viewBox="0 0 719.000000 740.000000"
 preserveAspectRatio="xMidYMid meet">

<g transform="translate(0.000000,740.000000) scale(0.100000,-0.100000)"
fill="#000000" stroke="none">
<path d="M3590 5530 l0 -40 -45 0 -45 0 0 -45 0 -45 -45 0 -45 0 0 -45 0 -45
-40 0 -40 0 0 -40 0 -40 -45 0 -45 0 0 -44 0 -44 -90 -7 -90 -7 0 -44 0 -44
-40 0 -40 0 0 -45 0 -45 -45 0 -45 0 0 -45 0 -45 -45 0 -45 0 0 -40 0 -40 -45
0 -45 0 0 -45 0 -45 -45 0 -45 0 0 -45 0 -45 -40 0 -40 0 0 -45 0 -45 -45 0
-45 0 0 -40 0 -40 -45 0 -45 0 0 -45 0 -45 -45 0 -45 0 0 -45 0 -45 -45 0 -45
0 0 -45 0 -45 -39 0 c-40 0 -40 0 -43 -42 -3 -43 -3 -43 -45 -46 -43 -3 -43
-3 -43 -43 l0 -39 45 0 45 0 0 40 0 40 40 0 40 0 0 45 0 45 45 0 45 0 0 45 0
45 45 0 45 0 0 45 0 45 45 0 45 0 0 44 0 43 79 7 80 7 3 37 c3 36 4 37 45 40
42 3 42 3 45 45 l3 42 48 3 47 3 0 39 c0 39 0 39 43 42 42 3 42 3 45 45 3 42
3 42 45 45 41 3 42 4 45 41 3 36 4 37 43 37 l39 0 0 45 0 45 45 0 45 0 0 45 0
45 45 0 45 0 0 45 0 45 45 0 45 0 0 45 0 45 40 0 40 0 0 40 0 40 45 0 45 0 0
45 0 45 45 0 45 0 0 45 0 45 45 0 45 0 0 45 0 45 -45 0 -45 0 0 -40z"/>
<path d="M4560 4561 l0 -39 -90 -8 -90 -7 0 -38 0 -39 -90 0 -90 0 0 -45 0
-45 -85 0 -85 0 0 -45 0 -45 -45 0 -45 0 0 -45 0 -45 -85 0 -85 0 0 -45 0 -45
-90 0 -90 0 0 -40 0 -40 -45 0 -45 0 0 -45 0 -45 -85 0 -85 0 0 -45 0 -45 -90
0 -90 0 0 -45 0 -45 -45 0 -45 0 0 -40 0 -40 -85 0 -85 0 0 -45 0 -45 -90 0
-90 0 0 -45 0 -45 -45 0 -45 0 0 -45 0 -45 45 0 45 0 0 45 0 45 90 0 90 0 0
45 0 45 85 0 85 0 0 45 0 45 90 0 90 0 0 40 0 40 45 0 45 0 0 45 0 45 85 0 85
0 0 45 0 45 90 0 90 0 0 45 0 45 45 0 45 0 0 40 0 40 85 0 85 0 0 45 0 45 90
0 90 0 0 44 0 45 43 3 c42 3 42 3 45 46 l3 42 85 0 84 0 0 45 0 45 90 0 90 0
0 40 0 40 40 0 40 0 0 45 0 45 -40 0 c-40 0 -40 0 -40 -39z"/>
<path d="M4873 3193 c-43 -4 -43 -4 -43 -44 l0 -39 -114 0 c-62 0 -141 -3
-175 -6 l-61 -7 0 -38 0 -39 -119 0 c-65 0 -146 -3 -180 -6 l-61 -7 0 -38 0
-39 -114 0 c-62 0 -141 -3 -175 -6 l-61 -7 0 -33 0 -34 -112 0 c-62 0 -143 -3
-180 -7 l-68 -6 0 -38 0 -39 -107 0 c-60 0 -138 -3 -175 -7 l-68 -6 0 -38 0
-39 -85 0 -85 0 0 -45 0 -45 130 0 130 0 0 45 0 45 175 0 175 0 0 45 0 45 175
0 175 0 0 45 0 45 175 0 175 0 0 40 0 40 180 0 180 0 0 45 0 45 175 0 175 0 0
45 0 45 85 0 85 0 0 45 0 45 -82 -2 c-46 -1 -102 -3 -125 -5z"/>
</g>
</svg>
